<svg width="90" height="90" viewBox="0 0 90 90" fill="none" xmlns="http://www.w3.org/2000/svg">
<path d="M52 8.99999C56.5354 11.1113 59.1654 13.9055 62 18C64.7501 26.2504 63.9484 35.1285 60.125 42.8125C58.5701 45.5955 57.2518 47.7482 55 50C54.3329 53.415 54.3329 53.415 55 57C58.5399 60.4416 62.3313 61.4742 67 62.9375C72.9182 64.8099 76.6425 66.7853 80.375 71.875C81 74 81 74 81 81C57.24 81 33.48 81 9 81C9 72.6154 9 72.6154 13 68C18.2748 64.2964 24.1689 62.3302 30.207 60.1484C33.0801 59.1766 33.0801 59.1766 35 57C35.8073 52.0555 34.8667 49.3806 32.125 45.375C31.5913 44.6609 31.0577 43.9467 30.5078 43.2109C25.8777 36.4217 26.3087 28.8943 27 21C28.5062 16.0093 31.7476 12.9095 36 9.99999C40.6483 7.67587 46.9412 8.58515 52 8.99999Z" fill="black"/>
</svg>
