<svg width="90" height="90" viewBox="0 0 90 90" fill="none" xmlns="http://www.w3.org/2000/svg">
<g clip-path="url(#clip0_608_43)">
<path d="M52.168 9.71875C56.508 12.0948 60.7633 15.5266 63 20C63.084 21.5945 63.1073 23.1924 63.0977 24.7891C63.0944 25.7301 63.0912 26.6711 63.0879 27.6406C63.0753 29.1179 63.0753 29.1179 63.0625 30.625C63.058 31.6176 63.0535 32.6102 63.0488 33.6328C63.037 36.0886 63.0206 38.5443 63 41C62.01 41.33 61.02 41.66 60 42C59.8969 42.7425 59.7938 43.485 59.6875 44.25C58.9507 47.1974 58.052 48.7838 56 51C55.34 51 54.68 51 54 51C54.6313 55.7251 54.6313 55.7251 57.5625 59.2148C59.6743 60.275 61.7906 61.161 64 62C76.7521 66.8957 76.7521 66.8957 80.3125 71.8125C81 74 81 74 81 81C57.24 81 33.48 81 9 81C9 72.6154 9 72.6154 13 68C18.2748 64.2964 24.1689 62.3302 30.207 60.1484C33.0801 59.1766 33.0801 59.1766 35 57C35.3976 55.0118 35.7378 53.0106 36 51C34.515 50.505 34.515 50.505 33 50C30.9247 47.0792 30 45.6245 30 42C28.515 41.505 28.515 41.505 27 41C26.9123 37.6252 26.8594 34.2506 26.8125 30.875C26.7874 29.9237 26.7622 28.9723 26.7363 27.9922C26.6797 22.556 26.8827 18.6723 30 14C36.0659 8.38907 44.2401 7.09041 52.168 9.71875Z" fill="black"/>
<path d="M83 1.00136e-05C86.1141 1.70433 88.3881 3.7762 90 7.00001C90.89 11.7709 90.7723 15.5535 88.4609 19.8828C83.5516 26.536 83.5516 26.536 79.9102 27.625C78 27.625 78 27.625 75 27C75.1432 23.9931 75.3093 21.7504 77.4023 19.4766C78.2241 18.7457 78.2241 18.7457 79.0625 18C81.6292 15.6728 81.9563 15.331 82.4375 11.6875C82.283 9.08826 82.283 9.08826 81 8.00001C79.0004 7.9592 76.9995 7.95747 75 8.00001C74.34 9.32001 73.68 10.64 73 12C70.69 12 68.38 12 66 12C66.1719 7.61667 66.6015 5.48025 69.4375 2.06251C73.5755 -0.938788 78.1117 -1.01409 83 1.00136e-05Z" fill="black"/>
<path d="M82 35C83.3228 40.4114 83.3228 40.4114 81.9375 42.9375C79.0891 44.4996 77.065 43.7492 74 43C72.6772 37.5886 72.6772 37.5886 74.0625 35.0625C76.9109 33.5005 78.9351 34.2508 82 35Z" fill="black"/>
</g>
<defs>
<clipPath id="clip0_608_43">
<rect width="90" height="90" fill="white"/>
</clipPath>
</defs>
</svg>
