<svg width="90" height="90" viewBox="0 0 90 90" fill="none" xmlns="http://www.w3.org/2000/svg">
<path d="M44.75 8.625C45.5448 8.62588 46.3396 8.62677 47.1584 8.62768C54.1103 8.76744 60.2895 9.92696 65.7734 14.4687C66.1782 14.9741 66.583 15.4794 67 16C66.6875 18.6875 66.6875 18.6875 66 21C62.2305 20.6154 59.3347 20.1708 55.9375 18.4375C49.7378 15.6105 41.8134 16.0088 35.3398 17.6914C27.6305 20.8518 22.1712 25.5747 18.7266 33.168C15.8271 40.4789 15.5756 49.6113 18.625 56.9375C23.1982 65.5402 28.8323 69.9441 38 73C45.7638 73.6087 52.2069 73.5727 59.1562 69.8906C61.5032 68.7569 63.4316 68.6686 66 69C66.495 71.475 66.495 71.475 67 74C60.4756 79.9128 53.6593 81.5554 45.125 81.4375C44.3342 81.4278 43.5433 81.418 42.7285 81.408C32.2237 81.0897 25.7901 77.6283 18.1992 70.3711C9.84765 61.3668 8.41107 52.2949 8.69922 40.4219C9.23856 29.8659 14.3878 23.0604 22 16C29.0407 10.5438 35.9294 8.60742 44.75 8.625Z" fill="black"/>
<path d="M66 30C68.896 29.6006 71.0927 29.4001 73.604 31.0606C75.2574 32.5584 76.79 34.1194 78.3125 35.75C79.1178 36.5583 79.1178 36.5583 79.9395 37.3828C82.6006 40.1346 84.4717 42.1714 85 46C83.7773 47.9297 83.7773 47.9297 81.9375 49.875C81.2904 50.5647 80.6433 51.2543 79.9766 51.9649C79.3243 52.6365 78.672 53.3081 78 54C77.1763 54.8991 77.1763 54.8991 76.3359 55.8164C73.7034 58.6177 71.8614 60.5008 68 61C66.25 59.5625 66.25 59.5625 65 58C66.4362 53.6913 67.546 52.454 71 49C60.44 48.67 49.88 48.34 39 48C38 44 38 44 39 42C49.56 41.67 60.12 41.34 71 41C69.35 39.35 67.7 37.7 66 36C65.125 33.8125 65.125 33.8125 65 32C65.33 31.34 65.66 30.68 66 30Z" fill="black"/>
</svg>
