<svg width="90" height="90" viewBox="0 0 90 90" fill="none" xmlns="http://www.w3.org/2000/svg">
<path d="M8.70312 61.375C32.8344 61.375 56.9656 61.375 81.8281 61.375C82.7656 65.125 82.7656 65.125 81.8281 67C57.6969 67 33.5656 67 8.70312 67C7.76562 63.25 7.76562 63.25 8.70312 61.375Z" fill="black"/>
<path d="M8.70312 41.6875C32.8344 41.6875 56.9656 41.6875 81.8281 41.6875C82.7656 45.4375 82.7656 45.4375 81.8281 47.3125C57.6969 47.3125 33.5656 47.3125 8.70312 47.3125C7.76562 43.5625 7.76562 43.5625 8.70312 41.6875Z" fill="black"/>
<path d="M8.70312 22C32.8344 22 56.9656 22 81.8281 22C82.7656 25.75 82.7656 25.75 81.8281 27.625C57.6969 27.625 33.5656 27.625 8.70312 27.625C7.76562 23.875 7.76562 23.875 8.70312 22Z" fill="black"/>
</svg>
