<svg width="90" height="90" viewBox="0 0 90 90" fill="none" xmlns="http://www.w3.org/2000/svg">
<path d="M64.3711 12.5781C65.6724 12.7869 65.6724 12.7869 67 13C67.33 12.67 67.66 12.34 68 12C73.7361 11.7268 73.7361 11.7268 76 12C78 14 78 14 78.1875 17.875C78.1252 20.748 77.7209 23.2194 77 26C77.495 27.485 77.495 27.485 78 29C78.6162 36.9501 79.1453 44.5065 74 51C71.8305 53.2448 69.5948 55.4003 67.3281 57.5469C63.5119 61.5679 60.7756 66.2252 58 71C54.8773 69.6122 52.747 67.9995 50.333 65.5918C49.6326 64.8977 48.9322 64.2035 48.2105 63.4884C47.0931 62.3649 47.0931 62.3649 45.9531 61.2187C44.7963 60.0648 44.7963 60.0648 43.6161 58.8876C41.9898 57.2626 40.3661 55.6352 38.7446 54.0054C36.2525 51.5025 33.7499 49.0106 31.2461 46.5195C29.6686 44.9407 28.0918 43.3613 26.5156 41.7812C25.7626 41.0323 25.0096 40.2833 24.2337 39.5116C23.5459 38.8175 22.8581 38.1233 22.1494 37.4082C21.5397 36.7969 20.93 36.1856 20.3018 35.5558C19 34 19 34 19 32C20.5857 30.9388 22.2217 29.9526 23.875 29C28.2643 26.3145 31.7067 23.4786 35.25 19.75C43.6607 11.1027 52.7287 10.5815 64.3711 12.5781Z" fill="black"/>
<path d="M9 33C12.4659 32.6977 14.3816 32.5802 17.3093 34.5676C18.404 35.6687 18.404 35.6687 19.5208 36.792C20.3579 37.6199 21.1951 38.4479 22.0577 39.301C22.9423 40.2071 23.8269 41.1133 24.7383 42.0469C25.6597 42.9696 26.581 43.8924 27.5303 44.8431C29.477 46.7945 31.4133 48.7555 33.342 50.7246C35.8128 53.2464 38.3029 55.7479 40.8004 58.2431C43.184 60.6277 45.5546 63.0249 47.9258 65.4219C48.8205 66.3199 49.7152 67.218 50.637 68.1432C51.8692 69.4041 51.8692 69.4041 53.1262 70.6904C53.852 71.4277 54.5778 72.1649 55.3256 72.9245C57.0305 75.0377 57.7542 76.3085 58 79C56.5625 80.75 56.5625 80.75 55 82C49.7735 80.5236 46.8317 77.1777 43.1875 73.375C42.2913 72.4585 42.2913 72.4585 41.377 71.5234C39.911 70.0223 38.4546 68.5121 37 67C36.1512 67.4853 36.1512 67.4853 35.2852 67.9805C32.8133 69.0833 31.1287 69.2988 28.4375 69.3125C27.6731 69.3293 26.9087 69.346 26.1211 69.3633C24 69 24 69 22.2422 67.7578C20.6758 65.5412 20.6284 64.257 20.6875 61.5625C20.6914 60.8007 20.6952 60.0388 20.6992 59.2539C21.0271 56.7968 21.8516 55.176 23 53C22.5811 52.5968 22.1623 52.1937 21.7307 51.7783C19.8334 49.9435 17.948 48.097 16.0625 46.25C15.4031 45.6158 14.7438 44.9816 14.0645 44.3281C13.436 43.7094 12.8076 43.0906 12.1602 42.4531C11.5789 41.8875 10.9976 41.322 10.3987 40.7393C8.83445 38.7941 8.30989 37.4653 8 35C8.33 34.34 8.66 33.68 9 33Z" fill="black"/>
</svg>
