<svg width="90" height="90" viewBox="0 0 90 90" fill="none" xmlns="http://www.w3.org/2000/svg">
<path d="M36 5.99999C36.1746 10.062 36.2809 14.1229 36.375 18.1875C36.4504 19.9132 36.4504 19.9132 36.5273 21.6738C36.6732 30.0634 36.6732 30.0634 34.6728 32.8462C33.0391 34.1758 33.0391 34.1758 30 36C28.1128 39.7744 28.5022 44.4238 29.75 48.375C31.4052 50.5268 32.3864 51.1746 35 52C38.8573 52.3039 42.293 52.2357 46 51C48.2266 52.3281 48.2266 52.3281 50.625 54.25C51.4216 54.8739 52.2183 55.4978 53.0391 56.1406C55 58 55 58 56 61C57.65 61 59.3 61 61 61C61 59.35 61 57.7 61 56C60.3194 55.7937 59.6387 55.5875 58.9375 55.375C54.9698 53.5178 51.5878 51.6155 49 48C48.6714 45.3668 48.8091 42.9823 49.0078 40.3398C49.1997 37.7496 49.1997 37.7496 47.1875 35C44.9675 32.8685 44.9675 32.8685 42 31C41.6594 28.478 41.6594 28.478 41.707 25.3359C41.7215 23.6537 41.7215 23.6537 41.7363 21.9375C41.7615 20.7619 41.7866 19.5862 41.8125 18.375C41.8328 16.6 41.8328 16.6 41.8535 14.7891C41.889 11.8589 41.9384 8.92968 42 5.99999C50.2921 5.76432 55.3415 7.53757 62.25 12.1875C67.4109 17.4657 69.8627 22.7967 71.3125 30C72.5727 35.8266 75.0119 38.8758 79.3555 42.8672C81.52 45.6745 81.3002 47.5447 81 51C78.36 51.99 75.72 52.98 73 54C72.9613 55.338 72.9613 55.338 72.9219 56.7031C72.8368 58.4588 72.8368 58.4588 72.75 60.25C72.7036 61.4102 72.6572 62.5703 72.6094 63.7656C71.8875 67.5971 71.1127 68.7097 68 71C64.9315 72.2534 61.8378 73.2618 58.6797 74.2656C54.9752 76.2306 54.9752 76.2306 54 84C44.1 84 34.2 84 24 84C23.7525 80.3494 23.7525 80.3494 23.5 76.625C22.7944 69.5505 20.8894 65.4751 15.9727 60.1836C8.88512 52.3382 8.36282 42.9857 8.82958 32.956C9.58296 24.3085 14.6884 17.6239 21 12C25.5417 8.87521 30.344 5.99999 36 5.99999Z" fill="black"/>
<path d="M36.875 35.7344C37.5763 35.7395 38.2775 35.7447 39 35.75C39.7013 35.7448 40.4025 35.7397 41.125 35.7344C43 36 43 36 45 38C45.2656 39.875 45.2656 39.875 45.25 42C45.2552 42.7013 45.2603 43.4025 45.2656 44.125C45 46 45 46 43 48C41.125 48.2656 41.125 48.2656 39 48.25C38.2987 48.2552 37.5975 48.2603 36.875 48.2656C35 48 35 48 33 46C32.7344 44.125 32.7344 44.125 32.75 42C32.7448 41.2987 32.7397 40.5975 32.7344 39.875C33.119 37.1602 34.1602 36.119 36.875 35.7344Z" fill="black"/>
</svg>
