<svg width="90" height="90" viewBox="0 0 90 90" fill="none" xmlns="http://www.w3.org/2000/svg">
<path d="M43.0625 50.9375C44.3085 51.5088 45.5552 52.0785 46.8027 52.6465C55.7736 56.7736 55.7736 56.7736 57 58C57.0409 60.333 57.0424 62.6671 57 65C57.5389 64.7577 58.0778 64.5153 58.6331 64.2656C61.1038 63.1636 63.5829 62.0818 66.0625 61C66.9101 60.6184 67.7576 60.2369 68.6309 59.8438C73.6736 57.6631 77.4953 56.4152 83 57C84 58 84 58 84.5508 61.2461C84 65 84 65 82.5796 66.4146C80.5025 67.768 78.3927 68.9296 76.1875 70.0625C75.4123 70.4852 74.6371 70.9078 73.8384 71.3433C72.2841 72.1884 70.7243 73.0232 69.1587 73.8472C67.301 74.8393 65.4802 75.8998 63.668 76.9727C62.7463 77.5179 61.8246 78.0632 60.875 78.625C60.0887 79.0916 59.3023 79.5583 58.4922 80.0391C50.4914 83.124 43.8347 79.1881 36.4375 76C34.232 75.0528 32.0225 74.1149 29.8086 73.1875C28.3515 72.5591 28.3515 72.5591 26.865 71.918C21.8248 70.303 17.9928 70.6476 13.3125 73C10.4864 74.4057 9.21685 75 6 75C6 66.75 6 58.5 6 50C20.9996 43.6172 28.3486 43.9688 43.0625 50.9375Z" fill="black"/>
<path d="M66.5547 6.94531C71.7628 10.0702 75.6933 14.3451 78 20C78.8718 27.4515 79.0899 34.2922 74.4297 40.4531C70.5085 44.6957 66.622 47.6932 60.8281 48.3711C53.21 48.5125 47.7439 48.3087 42 43C36.2148 36.7581 35.495 31.8887 35.6172 23.4922C36.3038 17.2289 39.0601 13.7979 43.5625 9.625C50.3995 5.067 58.6728 4.02879 66.5547 6.94531ZM55 12C54.67 12.99 54.34 13.98 54 15C52.7625 15.6497 52.7625 15.6497 51.5 16.3125C48.7333 17.8135 48.7333 17.8135 48 20.9375C48 24.5634 48.5208 25.4358 51 28C53.4829 28.9056 53.4829 28.9056 56.1875 29.25C57.0886 29.3995 57.9896 29.5491 58.918 29.7031C59.9486 29.8501 59.9486 29.8501 61 30C60.67 31.32 60.34 32.64 60 34C58.0005 34.0425 55.9996 34.0408 54 34C53.67 33.67 53.34 33.34 53 33C51.3338 32.9594 49.6661 32.9573 48 33C48.7156 35.0162 48.7156 35.0162 50 37C52.05 37.8053 52.05 37.8053 54 38C54 39.32 54 40.64 54 42C55.98 42 57.96 42 60 42C60 40.68 60 39.36 60 38C60.6188 37.8762 61.2375 37.7525 61.875 37.625C64.1912 37.128 64.1912 37.128 66 35C66.5057 30.9357 66.5057 30.9357 64.7734 27.4141C62.6877 25.751 60.8582 25.0873 58.3125 24.3125C57.5043 24.0611 56.696 23.8098 55.8633 23.5508C55.2484 23.369 54.6335 23.1873 54 23C54 22.01 54 21.02 54 20C55.9996 19.9575 58.0004 19.9592 60 20C60.33 20.33 60.66 20.66 61 21C62.6662 21.0406 64.3339 21.0427 66 21C65.2844 18.9838 65.2844 18.9838 64 17C61.95 16.1947 61.95 16.1947 60 16C60 14.68 60 13.36 60 12C58.35 12 56.7 12 55 12Z" fill="black"/>
</svg>
