<svg width="90" height="90" viewBox="0 0 90 90" fill="none" xmlns="http://www.w3.org/2000/svg">
<path d="M53.2031 9.71869C58.0435 12.3283 61.2696 15.8088 63 20.9999C64.1285 36.7625 64.1285 36.7625 59 42.9999C53.6 48.0048 49.1508 48.3501 42.0156 48.2812C36.4728 47.7643 33.4137 45.5253 29.625 41.4374C25.621 35.4314 26.4705 27.9348 27 20.9999C28.487 16.0298 31.7292 12.8471 36 9.99994C41.354 8.21526 47.7964 7.9548 53.2031 9.71869Z" fill="black"/>
<path d="M71.6719 63.6329C73.9341 65.2934 76.0173 67.0173 78 69C78.1875 72.4375 78.1875 72.4375 78 76C75.2966 78.7035 73.8942 78.2533 70.1133 78.2588C68.8786 78.2651 67.6439 78.2714 66.3718 78.2779C65.0187 78.2744 63.6656 78.2703 62.3125 78.2657C60.9301 78.267 59.5477 78.269 58.1653 78.2715C55.2667 78.2744 52.3683 78.2701 49.4697 78.2608C45.7504 78.2494 42.0313 78.256 38.312 78.2679C35.457 78.2752 32.6021 78.2729 29.7472 78.2677C28.3756 78.2663 27.004 78.268 25.6325 78.2726C23.7172 78.2777 21.802 78.2686 19.8867 78.2588C18.7958 78.2572 17.7048 78.2557 16.5808 78.254C14 78 14 78 12 76C11.5 72.6875 11.5 72.6875 12 69C15.9571 64.7462 20.6813 62.2466 26 60C26.6935 59.6984 27.387 59.3968 28.1016 59.086C42.035 53.9627 59.0923 55.9454 71.6719 63.6329Z" fill="black"/>
</svg>
